<svg width="192" height="192" viewBox="0 0 192 192" fill="none" xmlns="http://www.w3.org/2000/svg">
<path d="M156 78C156 132 96 174 96 174C96 174 36 132 36 78C36 62.087 42.3214 46.8258 53.5736 35.5736C64.8258 24.3214 80.087 18 96 18C111.913 18 127.174 24.3214 138.426 35.5736C149.679 46.8258 156 62.087 156 78V78Z" fill="white" stroke="black" stroke-width="6" stroke-linecap="round" stroke-linejoin="round"/>
<path d="M96 102C109.255 102 120 91.2548 120 78C120 64.7452 109.255 54 96 54C82.7452 54 72 64.7452 72 78C72 91.2548 82.7452 102 96 102Z" fill="black" stroke="black" stroke-width="6" stroke-linecap="round" stroke-linejoin="round"/>
</svg>
